<svg width="52" height="52" viewBox="0 0 52 52" fill="none" xmlns="http://www.w3.org/2000/svg">
<g id="39.-Calendar">
<path id="Layer-1" d="M49.4375 1H2.5625C1.69956 1 1 1.69956 1 2.5625V49.4375C1 50.3004 1.69956 51 2.5625 51H49.4375C50.3004 51 51 50.3004 51 49.4375V2.5625C51 1.69956 50.3004 1 49.4375 1Z" stroke="#BFD2F8" stroke-width="2" stroke-linecap="round" stroke-linejoin="round"/>
<path id="Layer-2" d="M16 16H6V26H16V16Z" stroke="#BFD2F8" stroke-width="2" stroke-linecap="round" stroke-linejoin="round"/>
<path id="Layer-3" d="M25.9995 16H15.9995V26H25.9995V16Z" stroke="#BFD2F8" stroke-width="2" stroke-linecap="round" stroke-linejoin="round"/>
<path id="Layer-4" d="M36 16H26V26H36V16Z" stroke="#BFD2F8" stroke-width="2" stroke-linecap="round" stroke-linejoin="round"/>
<path id="Layer-5" d="M46.0005 16H36.0005V26H46.0005V16Z" stroke="#BFD2F8" stroke-width="2" stroke-linecap="round" stroke-linejoin="round"/>
<path id="Layer-6" d="M46.0005 26H36.0005V36H46.0005V26Z" stroke="#BFD2F8" stroke-width="2" stroke-linecap="round" stroke-linejoin="round"/>
<path id="Layer-7" d="M36 26H26V36H36V26Z" stroke="#BFD2F8" stroke-width="2" stroke-linecap="round" stroke-linejoin="round"/>
<path id="Layer-8" d="M25.9995 26H15.9995V36H25.9995V26Z" stroke="#BFD2F8" stroke-width="2" stroke-linecap="round" stroke-linejoin="round"/>
<path id="Layer-9" d="M16 26H6V36H16V26Z" stroke="#BFD2F8" stroke-width="2" stroke-linecap="round" stroke-linejoin="round"/>
<path id="Layer-10" d="M16 36H6V46H16V36Z" stroke="#BFD2F8" stroke-width="2" stroke-linecap="round" stroke-linejoin="round"/>
<path id="Layer-11" d="M25.9995 36H15.9995V46H25.9995V36Z" stroke="#BFD2F8" stroke-width="2" stroke-linecap="round" stroke-linejoin="round"/>
<path id="Layer-12" d="M36 36H26V46H36V36Z" stroke="#BFD2F8" stroke-width="2" stroke-linecap="round" stroke-linejoin="round"/>
<path id="Layer-13" fill-rule="evenodd" clip-rule="evenodd" d="M11.0005 1H16.0005V3.5C16.0005 4.88071 14.8784 6 13.5005 6C12.1198 6 11.0005 4.8779 11.0005 3.5V1Z" stroke="#BFD2F8" stroke-width="2" stroke-linecap="round" stroke-linejoin="round"/>
<path id="Layer-14" fill-rule="evenodd" clip-rule="evenodd" d="M36.0005 1H41.0005V3.5C41.0005 4.88071 39.8784 6 38.5005 6C37.1198 6 36.0005 4.8779 36.0005 3.5V1Z" stroke="#BFD2F8" stroke-width="2" stroke-linecap="round" stroke-linejoin="round"/>
</g>
</svg>
