<svg width="52" height="40" viewBox="0 0 52 40" fill="none" xmlns="http://www.w3.org/2000/svg">
<g id="15.-Cash">
<path id="Layer-1" d="M51 1.77075H1V31.7708H51V1.77075Z" stroke="#FCFEFE" stroke-width="2" stroke-linecap="round" stroke-linejoin="round"/>
<path id="Layer-2" d="M48.9168 31.979H3.0835V35.104H48.9168V31.979Z" stroke="#FCFEFE" stroke-width="2" stroke-linecap="round" stroke-linejoin="round"/>
<path id="Layer-3" d="M46.8332 35.104H5.1665V38.229H46.8332V35.104Z" stroke="#FCFEFE" stroke-width="2" stroke-linecap="round" stroke-linejoin="round"/>
<path id="Layer-4" d="M25.7487 28.0594C30.1886 28.0594 33.7879 23.1072 33.7879 16.9984C33.7879 10.8897 30.1886 5.9375 25.7487 5.9375C21.3088 5.9375 17.7095 10.8897 17.7095 16.9984C17.7095 23.1072 21.3088 28.0594 25.7487 28.0594Z" stroke="#FCFEFE" stroke-width="2" stroke-linecap="round" stroke-linejoin="round"/>
<path id="Layer-5" fill-rule="evenodd" clip-rule="evenodd" d="M9.98454 28.0594H42.0158C42.0158 25.005 44.4059 22.5289 47.3543 22.5289V11.468C44.4059 11.468 42.0158 8.9919 42.0158 5.9375H9.98454C9.98454 8.9919 7.59439 11.468 4.646 11.468V22.5289C7.59439 22.5289 9.98454 25.005 9.98454 28.0594Z" stroke="#FCFEFE" stroke-width="2" stroke-linecap="round" stroke-linejoin="round"/>
<path id="Layer-6" d="M12.1826 18.5785C13.0151 18.5785 13.69 17.871 13.69 16.9983C13.69 16.1257 13.0151 15.4182 12.1826 15.4182C11.3502 15.4182 10.6753 16.1257 10.6753 16.9983C10.6753 17.871 11.3502 18.5785 12.1826 18.5785Z" stroke="#FCFEFE" stroke-width="2" stroke-linecap="round" stroke-linejoin="round"/>
<path id="Layer-7" d="M38.8125 18.5785C39.645 18.5785 40.3199 17.871 40.3199 16.9983C40.3199 16.1257 39.645 15.4182 38.8125 15.4182C37.98 15.4182 37.3052 16.1257 37.3052 16.9983C37.3052 17.871 37.98 18.5785 38.8125 18.5785Z" stroke="#FCFEFE" stroke-width="2" stroke-linecap="round" stroke-linejoin="round"/>
</g>
</svg>
