<svg width="32" height="32" viewBox="0 0 32 32" fill="none" xmlns="http://www.w3.org/2000/svg">
<g id="medical 1">
<path id="Vector" d="M11.7601 15.0533C11.6352 15.1772 11.536 15.3247 11.4683 15.4872C11.4006 15.6497 11.3657 15.8239 11.3657 15.9999C11.3657 16.176 11.4006 16.3502 11.4683 16.5127C11.536 16.6752 11.6352 16.8227 11.7601 16.9466C12.01 17.1949 12.3479 17.3343 12.7001 17.3343C13.0524 17.3343 13.3903 17.1949 13.6401 16.9466C13.7651 16.8227 13.8643 16.6752 13.932 16.5127C13.9997 16.3502 14.0345 16.176 14.0345 15.9999C14.0345 15.8239 13.9997 15.6497 13.932 15.4872C13.8643 15.3247 13.7651 15.1772 13.6401 15.0533C13.3903 14.8049 13.0524 14.6656 12.7001 14.6656C12.3479 14.6656 12.01 14.8049 11.7601 15.0533ZM15.0535 18.3599C14.8051 18.6098 14.6658 18.9477 14.6658 19.2999C14.6658 19.6522 14.8051 19.9901 15.0535 20.2399C15.1774 20.3649 15.3249 20.4641 15.4874 20.5318C15.6499 20.5995 15.8241 20.6343 16.0001 20.6343C16.1762 20.6343 16.3504 20.5995 16.5129 20.5318C16.6754 20.4641 16.8229 20.3649 16.9468 20.2399C17.1951 19.9901 17.3345 19.6522 17.3345 19.2999C17.3345 18.9477 17.1951 18.6098 16.9468 18.3599C16.8229 18.235 16.6754 18.1358 16.5129 18.0681C16.3504 18.0004 16.1762 17.9655 16.0001 17.9655C15.8241 17.9655 15.6499 18.0004 15.4874 18.0681C15.3249 18.1358 15.1774 18.235 15.0535 18.3599ZM27.0535 5.02661C25.6031 3.56424 23.6446 2.71761 21.5856 2.66297C19.5267 2.60834 17.5261 3.3499 16.0001 4.73328C14.4813 3.36605 12.4968 2.63192 10.4538 2.6815C8.41078 2.73109 6.46422 3.56064 5.01347 4.99994C3.57216 6.45306 2.74261 8.40333 2.69548 10.4495C2.64836 12.4956 3.38725 14.482 4.76014 15.9999C3.7337 17.1475 3.06019 18.5668 2.82042 20.0876C2.58065 21.6084 2.78481 23.1661 3.40841 24.5738C4.032 25.9814 5.04853 27.1792 6.33601 28.0235C7.6235 28.8677 9.12725 29.3225 10.6668 29.3333C12.6404 29.3354 14.5433 28.598 16.0001 27.2666C17.5198 28.6377 19.5071 29.3743 21.5533 29.3247C23.5994 29.2751 25.5488 28.4431 27.0001 26.9999C28.4396 25.5451 29.2667 23.5939 29.3114 21.5478C29.356 19.5016 28.6148 17.5162 27.2401 15.9999C28.6148 14.4837 29.356 12.4983 29.3114 10.4521C29.2667 8.406 28.4396 6.45479 27.0001 4.99994L27.0535 5.02661ZM25.1068 6.89328C26.034 7.84713 26.5714 9.11306 26.6133 10.4427C26.6552 11.7723 26.1988 13.0696 25.3335 14.0799L17.9201 6.66661C18.9394 5.82092 20.2327 5.37715 21.5564 5.4189C22.8801 5.46065 24.1429 5.98504 25.1068 6.89328ZM6.89347 25.1066C5.96623 24.1528 5.42892 22.8868 5.38699 21.5572C5.34505 20.2276 5.80152 18.9303 6.66681 17.9199L14.1335 25.3866C13.103 26.2373 11.7954 26.6789 10.4601 26.6273C9.12479 26.5757 7.85522 26.0344 6.89347 25.1066ZM25.1068 25.1066C24.0945 26.0748 22.7476 26.6152 21.3468 26.6152C19.946 26.6152 18.5992 26.0748 17.5868 25.1066L6.92014 14.4399C5.9268 13.4407 5.36925 12.0889 5.36925 10.6799C5.36925 9.27095 5.9268 7.91921 6.92014 6.91994C7.91941 5.9266 9.27115 5.36905 10.6801 5.36905C12.0891 5.36905 13.4409 5.9266 14.4401 6.91994L25.1068 17.5866C26.1001 18.5859 26.6577 19.9376 26.6577 21.3466C26.6577 22.7556 26.1001 24.1073 25.1068 25.1066ZM18.3601 15.0533C18.2352 15.1772 18.136 15.3247 18.0683 15.4872C18.0006 15.6497 17.9657 15.8239 17.9657 15.9999C17.9657 16.176 18.0006 16.3502 18.0683 16.5127C18.136 16.6752 18.2352 16.8227 18.3601 16.9466C18.61 17.1949 18.9479 17.3343 19.3001 17.3343C19.6524 17.3343 19.9903 17.1949 20.2401 16.9466C20.3651 16.8227 20.4643 16.6752 20.532 16.5127C20.5997 16.3502 20.6345 16.176 20.6345 15.9999C20.6345 15.8239 20.5997 15.6497 20.532 15.4872C20.4643 15.3247 20.3651 15.1772 20.2401 15.0533C19.9903 14.8049 19.6524 14.6656 19.3001 14.6656C18.9479 14.6656 18.61 14.8049 18.3601 15.0533ZM15.0535 11.7599C14.8051 12.0098 14.6658 12.3477 14.6658 12.6999C14.6658 13.0522 14.8051 13.3901 15.0535 13.6399C15.1774 13.7649 15.3249 13.8641 15.4874 13.9318C15.6499 13.9995 15.8241 14.0343 16.0001 14.0343C16.1762 14.0343 16.3504 13.9995 16.5129 13.9318C16.6754 13.8641 16.8229 13.7649 16.9468 13.6399C17.1951 13.3901 17.3345 13.0522 17.3345 12.6999C17.3345 12.3477 17.1951 12.0098 16.9468 11.7599C16.8229 11.635 16.6754 11.5358 16.5129 11.4681C16.3504 11.4004 16.1762 11.3655 16.0001 11.3655C15.8241 11.3655 15.6499 11.4004 15.4874 11.4681C15.3249 11.5358 15.1774 11.635 15.0535 11.7599Z" fill="#159EEC"/>
</g>
</svg>
