<svg width="48" height="49" viewBox="0 0 48 49" fill="none" xmlns="http://www.w3.org/2000/svg">
<path id="Vector" d="M16.3489 22.3468C16.1235 22.5703 15.9447 22.8362 15.8226 23.1292C15.7005 23.4221 15.6377 23.7364 15.6377 24.0538C15.6377 24.3712 15.7005 24.6854 15.8226 24.9784C15.9447 25.2713 16.1235 25.5373 16.3489 25.7608C16.7993 26.2085 17.4087 26.4599 18.0438 26.4599C18.679 26.4599 19.2883 26.2085 19.7388 25.7608C19.9641 25.5373 20.143 25.2713 20.2651 24.9784C20.3871 24.6854 20.45 24.3712 20.45 24.0538C20.45 23.7364 20.3871 23.4221 20.2651 23.1292C20.143 22.8362 19.9641 22.5703 19.7388 22.3468C19.2883 21.899 18.679 21.6476 18.0438 21.6476C17.4087 21.6476 16.7993 21.899 16.3489 22.3468ZM22.2873 28.3092C21.8395 28.7597 21.5881 29.369 21.5881 30.0042C21.5881 30.6394 21.8395 31.2487 22.2873 31.6992C22.5108 31.9245 22.7767 32.1034 23.0697 32.2254C23.3626 32.3475 23.6769 32.4103 23.9943 32.4103C24.3116 32.4103 24.6259 32.3475 24.9189 32.2254C25.2118 32.1034 25.4777 31.9245 25.7013 31.6992C26.149 31.2487 26.4004 30.6394 26.4004 30.0042C26.4004 29.369 26.149 28.7597 25.7013 28.3092C25.4777 28.0839 25.2118 27.905 24.9189 27.783C24.6259 27.6609 24.3116 27.5981 23.9943 27.5981C23.6769 27.5981 23.3626 27.6609 23.0697 27.783C22.7767 27.905 22.5108 28.0839 22.2873 28.3092ZM43.9252 4.26709C41.3099 1.63021 37.7784 0.103606 34.0658 0.00508225C30.3532 -0.0934418 26.7457 1.24371 23.9943 3.73817C21.2555 1.27283 17.6771 -0.0509227 13.9933 0.0384909C10.3094 0.127904 6.79947 1.62371 4.18354 4.21901C1.58462 6.83922 0.088799 10.3559 0.00382805 14.0454C-0.0811429 17.7349 1.2512 21.3167 3.72674 24.0538C1.87591 26.1229 0.661457 28.6822 0.229115 31.4245C-0.203228 34.1667 0.164907 36.9755 1.28934 39.5137C2.41378 42.052 4.24674 44.2118 6.56829 45.7341C8.88983 47.2564 11.6013 48.0765 14.3774 48.0959C17.9362 48.0997 21.3673 46.7702 23.9943 44.3694C26.7344 46.8418 30.3179 48.1699 34.0074 48.0804C37.697 47.991 41.2119 46.4908 43.829 43.8885C46.4246 41.2652 47.9161 37.7469 47.9966 34.0574C48.0771 30.3679 46.7405 26.7878 44.2618 24.0538C46.7405 21.3197 48.0771 17.7397 47.9966 14.0502C47.9161 10.3607 46.4246 6.84234 43.829 4.21901L43.9252 4.26709ZM40.415 7.63299C42.087 9.35294 43.0559 11.6356 43.1315 14.0331C43.2071 16.4306 42.384 18.7698 40.8237 20.5917L27.4563 7.22427C29.2942 5.69937 31.6262 4.89918 34.0131 4.97446C36.4 5.04974 38.677 5.9953 40.415 7.63299ZM7.57348 40.4745C5.90151 38.7546 4.93266 36.4719 4.85704 34.0744C4.78142 31.6769 5.6045 29.3377 7.16476 27.5158L20.6284 40.9794C18.7702 42.5134 16.4124 43.3097 14.0046 43.2166C11.5969 43.1235 9.30766 42.1474 7.57348 40.4745ZM40.415 40.4745C38.5896 42.2204 36.1611 43.1948 33.6352 43.1948C31.1093 43.1948 28.6807 42.2204 26.8553 40.4745L7.62156 21.2408C5.83042 19.439 4.82505 17.0016 4.82505 14.461C4.82505 11.9203 5.83042 9.48291 7.62156 7.68108C9.4234 5.88993 11.8608 4.88456 14.4014 4.88456C16.9421 4.88456 19.3795 5.88993 21.1813 7.68108L40.415 26.9148C42.2062 28.7166 43.2115 31.154 43.2115 33.6947C43.2115 36.2353 42.2062 38.6727 40.415 40.4745ZM28.2497 22.3468C28.0244 22.5703 27.8455 22.8362 27.7235 23.1292C27.6014 23.4221 27.5386 23.7364 27.5386 24.0538C27.5386 24.3712 27.6014 24.6854 27.7235 24.9784C27.8455 25.2713 28.0244 25.5373 28.2497 25.7608C28.7002 26.2085 29.3095 26.4599 29.9447 26.4599C30.5798 26.4599 31.1892 26.2085 31.6397 25.7608C31.865 25.5373 32.0439 25.2713 32.1659 24.9784C32.288 24.6854 32.3508 24.3712 32.3508 24.0538C32.3508 23.7364 32.288 23.4221 32.1659 23.1292C32.0439 22.8362 31.865 22.5703 31.6397 22.3468C31.1892 21.899 30.5798 21.6476 29.9447 21.6476C29.3095 21.6476 28.7002 21.899 28.2497 22.3468ZM22.2873 16.4084C21.8395 16.8588 21.5881 17.4682 21.5881 18.1033C21.5881 18.7385 21.8395 19.3479 22.2873 19.7983C22.5108 20.0237 22.7767 20.2025 23.0697 20.3246C23.3626 20.4466 23.6769 20.5095 23.9943 20.5095C24.3116 20.5095 24.6259 20.4466 24.9189 20.3246C25.2118 20.2025 25.4777 20.0237 25.7013 19.7983C26.149 19.3479 26.4004 18.7385 26.4004 18.1033C26.4004 17.4682 26.149 16.8588 25.7013 16.4084C25.4777 16.183 25.2118 16.0042 24.9189 15.8821C24.6259 15.76 24.3116 15.6972 23.9943 15.6972C23.6769 15.6972 23.3626 15.76 23.0697 15.8821C22.7767 16.0042 22.5108 16.183 22.2873 16.4084Z" fill="#BFD2F8"/>
</svg>
