<svg width="52" height="46" viewBox="0 0 52 46" fill="none" xmlns="http://www.w3.org/2000/svg">
<g id="27.-Team">
<path id="Layer-1" fill-rule="evenodd" clip-rule="evenodd" d="M17.7485 15.4739C17.384 15.6983 16.6974 17.1071 17.008 18.3431C17.47 20.1813 19.1133 20.8987 19.1133 20.8987C19.1133 20.8987 21.6841 24.2932 21.6841 26.2672C21.6841 28.2413 21.6841 29.0082 20.9952 30.6551C20.3062 32.3019 6.78262 34.2761 6.2085 43.9848H25.8921L45.7918 43.9869C45.2177 34.2782 31.6941 32.304 31.0052 30.6572C30.3162 29.0103 30.3162 28.2434 30.3162 26.2693C30.3162 24.2953 32.887 20.9009 32.887 20.9009C32.887 20.9009 34.5303 20.1834 34.9923 18.3452C35.303 17.1092 34.6163 15.7004 34.2518 15.476C35.2261 12.5032 37.172 2.25444 26.1082 1.88506C26.059 1.87807 26.0101 1.87932 25.9614 1.88076C14.8283 2.25232 16.7742 12.5011 17.7485 15.4739Z" stroke="#1F2B6C" stroke-width="2" stroke-linecap="round" stroke-linejoin="round"/>
<path id="Layer-2" fill-rule="evenodd" clip-rule="evenodd" d="M1 37.5162C4.24791 35.2388 8.29741 34.3552 8.6274 33.5664C9.17278 32.2627 9.17278 31.6555 9.17278 30.0928C9.17278 28.5301 7.13764 25.843 7.13764 25.843C7.13764 25.843 5.83677 25.2751 5.47104 23.8199C5.22513 22.8414 5.7687 21.7262 6.05724 21.5485C5.28596 19.1952 3.74557 11.082 12.5588 10.7878C12.5974 10.7867 12.6361 10.7857 12.675 10.7912C14.5757 10.8547 15.9914 11.2865 17.0352 11.9478C17.1712 13.4169 17.4931 14.695 17.7483 15.4738C17.3838 15.6983 16.6972 17.107 17.0078 18.3431C17.4698 20.1813 19.1131 20.8987 19.1131 20.8987C19.1131 20.8987 19.1667 20.9695 19.2584 21.0965C19.2117 21.2646 19.1655 21.4167 19.1218 21.5502C19.4103 21.7279 19.9539 22.8431 19.7079 23.8216C19.3422 25.2767 18.0413 25.8447 18.0413 25.8447C18.0413 25.8447 16.0062 28.5318 16.0062 30.0945C16.0062 31.3973 16.0062 32.036 16.3222 32.9678C12.1215 34.794 6.57168 37.8405 6.20833 43.9848H25.8919L45.7917 43.9869C45.4215 37.7278 39.6693 34.6833 35.4437 32.8688C35.7353 31.9762 35.7353 31.3373 35.7353 30.0691C35.7353 28.5064 33.7001 25.8192 33.7001 25.8192C33.7001 25.8192 32.3993 25.2513 32.0335 23.7961C31.7876 22.8177 32.3312 21.7024 32.6197 21.5248C32.6015 21.4692 32.5829 21.4105 32.564 21.3487C32.7606 21.0676 32.8869 20.9008 32.8869 20.9008C32.8869 20.9008 34.5302 20.1834 34.9922 18.3452C35.3028 17.1092 34.6162 15.7004 34.2517 15.476C34.5171 14.6661 34.8546 13.3162 34.9816 11.7732C36.0056 11.1958 37.3557 10.823 39.1213 10.7641C39.1599 10.7629 39.1986 10.7619 39.2375 10.7675C47.9959 11.0599 46.4555 19.1731 45.6842 21.5264C45.9728 21.7041 46.5164 22.8193 46.2704 23.7978C45.9047 25.253 44.6038 25.8209 44.6038 25.8209C44.6038 25.8209 42.5687 28.508 42.5687 30.0708C42.5687 31.6335 42.5687 32.2406 43.1141 33.5443C43.4529 34.3542 47.7126 35.264 51 37.6796V44.0961L39.0665 44.0948H28.2556C28.2561 44.1033 28.2566 44.1118 28.2571 44.1203L12.504 44.1186H1V37.5162Z" stroke="#1F2B6C" stroke-width="2" stroke-linecap="round" stroke-linejoin="round"/>
</g>
</svg>
