<svg width="32" height="40" viewBox="0 0 32 40" fill="none" xmlns="http://www.w3.org/2000/svg">
<path id="Vector" d="M26 8H22V4H26C26.5304 4 27.0391 3.78929 27.4142 3.41421C27.7893 3.03914 28 2.53043 28 2C28 1.46957 27.7893 0.960859 27.4142 0.585786C27.0391 0.210714 26.5304 0 26 0H10C7.34784 0 4.8043 1.05357 2.92893 2.92893C1.05357 4.8043 0 7.34784 0 10V38C0 38.5304 0.210714 39.0391 0.585787 39.4142C0.96086 39.7893 1.46957 40 2 40C2.53043 40 3.03914 39.7893 3.41421 39.4142C3.78929 39.0391 4 38.5304 4 38V10C4 8.4087 4.63214 6.88258 5.75736 5.75736C6.88258 4.63214 8.4087 4 10 4H18V8H14C12.4087 8 10.8826 8.63214 9.75736 9.75736C8.63214 10.8826 8 12.4087 8 14V23.86C7.99963 24.8498 8.24414 25.8243 8.71175 26.6967C9.17935 27.5691 9.85553 28.3123 10.68 28.86L14 31.08V32C14 33.0609 14.4214 34.0783 15.1716 34.8284C15.9217 35.5786 16.9391 36 18 36V38C18 38.5304 18.2107 39.0391 18.5858 39.4142C18.9609 39.7893 19.4696 40 20 40C20.5304 40 21.0391 39.7893 21.4142 39.4142C21.7893 39.0391 22 38.5304 22 38V36C23.0609 36 24.0783 35.5786 24.8284 34.8284C25.5786 34.0783 26 33.0609 26 32V31.08L29.32 28.86C30.1445 28.3123 30.8206 27.5691 31.2882 26.6967C31.7559 25.8243 32.0004 24.8498 32 23.86V14C32 12.4087 31.3679 10.8826 30.2426 9.75736C29.1174 8.63214 27.5913 8 26 8ZM24 18H28V20H26C25.4696 20 24.9609 20.2107 24.5858 20.5858C24.2107 20.9609 24 21.4696 24 22C24 22.5304 24.2107 23.0391 24.5858 23.4142C24.9609 23.7893 25.4696 24 26 24H28C27.9786 24.3036 27.8883 24.5984 27.7358 24.8618C27.5833 25.1252 27.3727 25.3503 27.12 25.52L22.92 28.34C22.6412 28.5189 22.4111 28.7642 22.2506 29.0539C22.09 29.3437 22.0039 29.6688 22 30V32H18V30C17.9983 29.6706 17.9153 29.3467 17.7582 29.0571C17.6012 28.7675 17.3751 28.5212 17.1 28.34L12.9 25.52C12.6249 25.3388 12.3988 25.0925 12.2418 24.8029C12.0847 24.5133 12.0017 24.1894 12 23.86V14C12 13.4696 12.2107 12.9609 12.5858 12.5858C12.9609 12.2107 13.4696 12 14 12H26C26.5304 12 27.0391 12.2107 27.4142 12.5858C27.7893 12.9609 28 13.4696 28 14H24C23.4696 14 22.9609 14.2107 22.5858 14.5858C22.2107 14.9609 22 15.4696 22 16C22 16.5304 22.2107 17.0391 22.5858 17.4142C22.9609 17.7893 23.4696 18 24 18Z" fill="#159EEC"/>
</svg>
