<svg width="32" height="28" viewBox="0 0 32 28" fill="none" xmlns="http://www.w3.org/2000/svg">
<path id="Vector" d="M19.2382 12.4226H17.6366V10.8358C17.6366 10.415 17.4679 10.0114 17.1675 9.71386C16.8671 9.4163 16.4598 9.24912 16.035 9.24912C15.6102 9.24912 15.2029 9.4163 14.9025 9.71386C14.6022 10.0114 14.4334 10.415 14.4334 10.8358V12.4226H12.8319C12.4071 12.4226 11.9997 12.5897 11.6994 12.8873C11.399 13.1849 11.2303 13.5885 11.2303 14.0093C11.2303 14.4301 11.399 14.8337 11.6994 15.1313C11.9997 15.4288 12.4071 15.596 12.8319 15.596H14.4334V17.1827C14.4334 17.6036 14.6022 18.0072 14.9025 18.3047C15.2029 18.6023 15.6102 18.7695 16.035 18.7695C16.4598 18.7695 16.8671 18.6023 17.1675 18.3047C17.4679 18.0072 17.6366 17.6036 17.6366 17.1827V15.596H19.2382C19.6629 15.596 20.0703 15.4288 20.3707 15.1313C20.671 14.8337 20.8398 14.4301 20.8398 14.0093C20.8398 13.5885 20.671 13.1849 20.3707 12.8873C20.0703 12.5897 19.6629 12.4226 19.2382 12.4226ZM29.1039 2.90223C27.3961 1.22777 25.1405 0.213164 22.7441 0.0414984C20.3476 -0.130167 17.9681 0.552409 16.035 1.96606C13.9973 0.464448 11.4609 -0.216456 8.93668 0.0604685C6.41248 0.337393 4.08793 1.55158 2.43115 3.45851C0.774366 5.36545 -0.0915838 7.82348 0.00768023 10.3376C0.106944 12.8518 1.16405 15.2353 2.96612 17.0082L12.5756 26.6079C13.4765 27.4993 14.6977 28 15.971 28C17.2442 28 18.4654 27.4993 19.3663 26.6079L28.9758 17.0082C29.9222 16.0921 30.6766 14.9997 31.1955 13.7939C31.7144 12.588 31.9877 11.2924 31.9996 9.9816C32.0115 8.67077 31.7618 7.37053 31.2649 6.15561C30.7679 4.9407 30.0335 3.83505 29.1039 2.90223ZM26.8457 14.7392L17.2362 24.2595C17.0873 24.4082 16.9102 24.5263 16.715 24.6068C16.5198 24.6874 16.3105 24.7289 16.0991 24.7289C15.8876 24.7289 15.6783 24.6874 15.4831 24.6068C15.288 24.5263 15.1108 24.4082 14.962 24.2595L5.35247 14.7392C4.09645 13.4672 3.39312 11.7585 3.39312 9.97902C3.39312 8.19956 4.09645 6.49085 5.35247 5.21885C6.63238 3.9669 8.35859 3.2649 10.1572 3.2649C11.9558 3.2649 13.682 3.9669 14.962 5.21885C15.1108 5.36757 15.288 5.48561 15.4831 5.56617C15.6783 5.64672 15.8876 5.6882 16.0991 5.6882C16.3105 5.6882 16.5198 5.64672 16.715 5.56617C16.9102 5.48561 17.0873 5.36757 17.2362 5.21885C18.5161 3.9669 20.2423 3.2649 22.0409 3.2649C23.8396 3.2649 25.5658 3.9669 26.8457 5.21885C28.1113 6.49226 28.8208 8.20773 28.8208 9.99488C28.8208 11.782 28.1113 13.4975 26.8457 14.7709V14.7392Z" fill="#159EEC"/>
</svg>
