<svg width="32" height="32" viewBox="0 0 32 32" fill="none" xmlns="http://www.w3.org/2000/svg">
<path id="Vector" d="M27.2 0H4.8C3.52696 0 2.30606 0.505713 1.40589 1.40589C0.505713 2.30606 0 3.52696 0 4.8V27.2C0 28.473 0.505713 29.6939 1.40589 30.5941C2.30606 31.4943 3.52696 32 4.8 32H27.2C28.473 32 29.6939 31.4943 30.5941 30.5941C31.4943 29.6939 32 28.473 32 27.2V4.8C32 3.52696 31.4943 2.30606 30.5941 1.40589C29.6939 0.505713 28.473 0 27.2 0ZM28.8 27.2C28.8 27.6243 28.6314 28.0313 28.3314 28.3314C28.0313 28.6314 27.6243 28.8 27.2 28.8H4.8C4.37565 28.8 3.96869 28.6314 3.66863 28.3314C3.36857 28.0313 3.2 27.6243 3.2 27.2V4.8C3.2 4.37565 3.36857 3.96869 3.66863 3.66863C3.96869 3.36857 4.37565 3.2 4.8 3.2H27.2C27.6243 3.2 28.0313 3.36857 28.3314 3.66863C28.6314 3.96869 28.8 4.37565 28.8 4.8V27.2ZM24 11.2H20.8V8C20.8 7.57565 20.6314 7.16869 20.3314 6.86863C20.0313 6.56857 19.6243 6.4 19.2 6.4H12.8C12.3757 6.4 11.9687 6.56857 11.6686 6.86863C11.3686 7.16869 11.2 7.57565 11.2 8V11.2H8C7.57565 11.2 7.16869 11.3686 6.86863 11.6686C6.56857 11.9687 6.4 12.3757 6.4 12.8V19.2C6.4 19.6243 6.56857 20.0313 6.86863 20.3314C7.16869 20.6314 7.57565 20.8 8 20.8H11.2V24C11.2 24.4243 11.3686 24.8313 11.6686 25.1314C11.9687 25.4314 12.3757 25.6 12.8 25.6H19.2C19.6243 25.6 20.0313 25.4314 20.3314 25.1314C20.6314 24.8313 20.8 24.4243 20.8 24V20.8H24C24.4243 20.8 24.8313 20.6314 25.1314 20.3314C25.4314 20.0313 25.6 19.6243 25.6 19.2V12.8C25.6 12.3757 25.4314 11.9687 25.1314 11.6686C24.8313 11.3686 24.4243 11.2 24 11.2ZM22.4 17.6H19.2C18.7757 17.6 18.3687 17.7686 18.0686 18.0686C17.7686 18.3687 17.6 18.7757 17.6 19.2V22.4H14.4V19.2C14.4 18.7757 14.2314 18.3687 13.9314 18.0686C13.6313 17.7686 13.2243 17.6 12.8 17.6H9.6V14.4H12.8C13.2243 14.4 13.6313 14.2314 13.9314 13.9314C14.2314 13.6313 14.4 13.2243 14.4 12.8V9.6H17.6V12.8C17.6 13.2243 17.7686 13.6313 18.0686 13.9314C18.3687 14.2314 18.7757 14.4 19.2 14.4H22.4V17.6Z" fill="#159EEC"/>
</svg>
